<svg xmlns="http://www.w3.org/2000/svg" width="248.9611" height="229.7801" viewBox="4.2922 -47.8472 248.9611 229.7801">
	<title>
		Neo4j Graph Visualization
	</title>
	<desc>
		Created using Neo4j (http://www.neo4j.com/)
	</desc>
	<defs><style> text { font-family: sans-serif; text-anchor: middle; } path { fill: #A5ABB6 }</style></defs>
	<g class="layer relationships">
		<g class="relationship" transform="translate(119.8333 44.5619) rotate(435.6471)">
			<path class="outline" stroke="none" d="M 25 0.5 L 39.1558 0.5 L 39.1558 -0.5 L 25 -0.5 Z M 65.7066 0.5 L 79.8624 0.5 L 79.8624 3.5 L 86.8624 0 L 79.8624 -3.5 L 79.8624 -0.5 L 65.7066 -0.5 Z" />
			<text pointer-events="none" font-size="8px" fill="#000000" x="52.4312" y="3">
				LIKES
			</text>
		</g>
		<g class="relationship" transform="translate(119.8333 44.5619) rotate(364.6220)">
			<path class="outline" stroke="none" d="M 25 0.5 L 35.6049 0.5 L 35.6049 -0.5 L 25 -0.5 Z M 62.1557 0.5 L 72.7607 0.5 L 72.7607 3.5 L 79.7607 0 L 72.7607 -3.5 L 72.7607 -0.5 L 62.1557 -0.5 Z" />
			<text pointer-events="none" font-size="8px" fill="#000000" x="48.8803" y="3">
				LIKES
			</text>
		</g>
		<g class="relationship" transform="translate(119.8333 44.5619) rotate(216.8069)">
			<path class="outline" stroke="none" d="M 25 0.5 L 36.1432 0.5 L 36.1432 -0.5 L 25 -0.5 Z M 62.6940 0.5 L 73.8372 0.5 L 73.8372 3.5 L 80.8372 0 L 73.8372 -3.5 L 73.8372 -0.5 L 62.6940 -0.5 Z" />
			<text pointer-events="none" font-size="8px" fill="#000000" x="49.4186" y="3" transform="rotate(180 49.4186 0)">
				LIKES
			</text>
		</g>
		<g class="relationship" transform="translate(119.8333 44.5619) rotate(499.9131)">
			<path class="outline" stroke="none" d="M 25 0.5 L 39.7823 0.5 L 39.7823 -0.5 L 25 -0.5 Z M 66.3330 0.5 L 81.1154 0.5 L 81.1154 3.5 L 88.1154 0 L 81.1154 -3.5 L 81.1154 -0.5 L 66.3330 -0.5 Z" />
			<text pointer-events="none" font-size="8px" fill="#000000" x="53.0577" y="3" transform="rotate(180 53.0577 0)">
				LIKES
			</text>
		</g>
	</g>
	<g class="layer nodes">
		<g class="node" transform="translate(119.8333,44.5619)">
			<circle class="outline" cx="0" cy="0" r="25" fill="#F79767" stroke="#f36924" stroke-width="2px" />
			<text pointer-events="none" x="0" y="5" font-size="10px" fill="#FFFFFF">
				小明
			</text>
		</g>
		<g class="node" transform="translate(147.5631,152.9328)">
			<circle class="outline" cx="0" cy="0" r="25" fill="#57C7E3" stroke="#23b3d7" stroke-width="2px" />
			<text pointer-events="none" x="0" y="5" font-size="10px" fill="#2A2C34">
				音乐
			</text>
		</g>
		<g class="node" transform="translate(224.2534,53.0037)">
			<circle class="outline" cx="0" cy="0" r="25" fill="#57C7E3" stroke="#23b3d7" stroke-width="2px" />
			<text pointer-events="none" x="0" y="5" font-size="10px" fill="#2A2C34">
				游泳
			</text>
		</g>
		<g class="node" transform="translate(35.0937,-18.8472)">
			<circle class="outline" cx="0" cy="0" r="25" fill="#57C7E3" stroke="#23b3d7" stroke-width="2px" />
			<text pointer-events="none" x="0" y="5" font-size="10px" fill="#2A2C34">
				摄影
			</text>
		</g>
		<g class="node" transform="translate(33.2921,117.4023)">
			<circle class="outline" cx="0" cy="0" r="25" fill="#57C7E3" stroke="#23b3d7" stroke-width="2px" />
			<text pointer-events="none" x="0" y="5" font-size="10px" fill="#2A2C34">
				跳舞
			</text>
		</g>
	</g>
</svg>
